<svg xmlns="http://www.w3.org/2000/svg" width="7996" height="1704" viewBox="0 0 7996 1704"><defs><style>      .cls-1 {        fill: #0c0c11;        fill-rule: evenodd;      }    </style></defs><path id="www.gamestore.com.pk" class="cls-1" d="M0,1704V0H7996V1704H0Zm6567.38-143.26h25.09V1526.2l21.42-22,47.66,56.54h29.33l-60.2-74.68,56.73-60.41h-28.17l-66.77,69.28v-69.28h-25.09v135.09Zm-460.83-3.19a16.8,16.8,0,1,0-4.63-11.48A15.4,15.4,0,0,0,6106.55,1557.55Zm-313.39,3.19h23.93v-88.38l44.38,72.94h11.19l44.39-74.1,0.19,89.54h23.74l-0.2-135.09h-20.64l-52.69,89.55-53.64-89.55h-20.65v135.09ZM5223.2,1528.9a66.115,66.115,0,0,0,25.86,24.79q16.5,8.985,36.95,8.98a77.8,77.8,0,0,0,30.4-5.79,61.7,61.7,0,0,0,23.25-16.79l-16.21-15.44q-14.67,16.02-36.09,16.02a50.609,50.609,0,0,1-24.89-6.08,43.711,43.711,0,0,1-17.17-16.89,51.674,51.674,0,0,1,0-49.01,43.844,43.844,0,0,1,17.17-16.89,50.609,50.609,0,0,1,24.89-6.08q21.435,0,36.09,15.83l16.21-15.25a61.771,61.771,0,0,0-23.16-16.79,77.036,77.036,0,0,0-30.29-5.79,76.116,76.116,0,0,0-36.96,8.98,66.785,66.785,0,0,0-25.95,24.8q-9.465,15.825-9.46,35.7T5223.2,1528.9Zm-183.62,28.65a16.79,16.79,0,1,0-4.63-11.48A15.4,15.4,0,0,0,5039.58,1557.55Zm-536.28,3.19h25.09v-39.37h30.49a51.333,51.333,0,0,0,5.21-.19l27.59,39.56h27.02l-31.07-44.39q13.89-5.4,21.33-16.4t7.42-26.24q0-14.865-6.94-25.67t-19.98-16.6q-13.02-5.79-30.58-5.79H4503.3v135.09Zm-297.57-31.94a66.449,66.449,0,0,0,26.05,24.89q16.605,8.985,37.25,8.98t37.24-8.98a66.624,66.624,0,0,0,26.05-24.79,72.092,72.092,0,0,0,0-71.4,66.648,66.648,0,0,0-26.05-24.8q-16.59-8.97-37.24-8.98t-37.25,8.98a66.449,66.449,0,0,0-26.05,24.89A71.734,71.734,0,0,0,4205.73,1528.8Zm-1086.65,31.94h23.93v-88.38l44.38,72.94h11.19l44.39-74.1,0.19,89.54h23.74l-0.19-135.09h-20.65l-52.69,89.55-53.64-89.55h-20.65v135.09Zm-272.68,0,13.32-31.26h67.54l13.51,31.26h26.24l-60.98-135.09h-24.7l-60.79,135.09h25.86Zm-290.81-31.84a66.557,66.557,0,0,0,26.05,24.79q16.59,8.985,37.24,8.98a93.237,93.237,0,0,0,28.56-4.44,75.325,75.325,0,0,0,24.32-12.74v-53.84h-23.74v42.07q-11.97,6.945-27.79,6.95a50.869,50.869,0,0,1-25.18-6.18,44.86,44.86,0,0,1-17.37-16.98,47.542,47.542,0,0,1-6.27-24.31,48.28,48.28,0,0,1,6.27-24.7,43.58,43.58,0,0,1,17.37-16.79,52.6,52.6,0,0,1,25.38-5.99,50.763,50.763,0,0,1,37.24,15.44l15.82-15.44a60.536,60.536,0,0,0-23.35-16.4,81.931,81.931,0,0,0-30.87-5.6q-20.85,0-37.54,8.98a66.489,66.489,0,0,0-26.14,24.8q-9.465,15.825-9.46,35.7T2555.59,1528.9Zm-183.72,28.65a16.79,16.79,0,1,0-4.63-11.48A15.4,15.4,0,0,0,2371.87,1557.55Zm-310.88,3.19h26.82l33.96-99.96,33.39,99.96h26.63l44.77-135.09h-23.93l-34.54,103.25-34.16-103.25h-23.16l-34.92,102.67-33.58-102.67h-26.05Zm-711.32,0h26.83l33.96-99.96,33.39,99.96h26.63l44.77-135.09h-23.93l-34.54,103.25-34.16-103.25h-23.16l-34.93,102.67-33.57-102.67H1304.9ZM745.08,723.37h-250.9v17.088L543.419,794.5v184.19l-33.765,23.385H354.294l-33.765-23.385V367.4l33.765-23.384H509.651L543.419,367.4V531.005h17.087L745.08,403.176V240.789l-141.2-98.434H260.07l-141.2,98.434V1105.97l141.2,97.76H603.877l141.2-97.76V723.37Zm951.97,463.27-49.23-54.03L1410.94,213.479l49.24-54.037V142.355H1081.46v17.087l49.24,54.037L879.223,1132.61l-49.236,54.03v17.09H1137.53v-17.09l-49.23-54.03,9.3-34.01,282.74-195.812,59.22,229.822-49.23,54.03v17.09h306.72v-17.09Zm-10.44,239.01h-26.05l44.77,135.09h26.82l33.97-99.96,33.38,99.96h26.63l44.77-135.09h-23.92l-34.55,103.25-34.15-103.25h-23.16l-34.93,102.67Zm1049.17-239.01-49.24-54.03V213.479l49.24-54.037V142.355h-250.9v0.02l-239.92,480.79-245.98-480.81H1748.07v17.087l49.24,54.037V1132.61l-49.24,54.03v17.09h300.14v-17.09l-49.24-54.03v-547.5l248.24,485.211,237.67-476.293V1132.61l-49.23,54.03v17.09h300.13v-17.09Zm727.71-233.805H3446.4l-54.03,49.235H3038.05V829.823H3323.9l36.15,32.94h11.43V595.221h-11.43l-36.15,32.94H3038.05V344.016h354.32l54.03,49.236h17.09v-250.9H2787.16v17.087l49.23,54.037V1132.61l-49.23,54.03v17.09h676.33V952.835Zm76.08,586.865h-76.22v-37.24h65.22v-20.65h-65.22v-35.12h73.52v-21.04h-98.61v135.09h101.31V1539.7Zm186.52-90.12q7.23-5.01,22.09-5.01a69.314,69.314,0,0,1,18.72,2.7,78.259,78.259,0,0,1,18.53,7.91l7.91-19.49a67.217,67.217,0,0,0-20.65-8.88,97.317,97.317,0,0,0-24.31-3.09q-17.76,0-30.01,5.41t-18.34,14.57a36.061,36.061,0,0,0-6.07,20.36q0,13.305,6.85,21.13a41.011,41.011,0,0,0,16.4,11.48,200.972,200.972,0,0,0,24.99,7.33q11,2.715,17.37,4.83a29.117,29.117,0,0,1,10.52,5.88,12.362,12.362,0,0,1,4.14,9.56q0,7.9-7.43,12.73t-22.48,4.83a73.952,73.952,0,0,1-24.22-4.15,68.524,68.524,0,0,1-20.35-10.71l-8.69,19.49q8.49,7.335,23.06,11.77a103.006,103.006,0,0,0,30.2,4.44q17.76,0,30.11-5.41t18.43-14.47a35.59,35.59,0,0,0,6.08-20.26q0-13.125-6.86-20.84a42.1,42.1,0,0,0-16.49-11.48,181.961,181.961,0,0,0-24.71-7.24q-10.995-2.7-17.36-4.83a29.871,29.871,0,0,1-10.52-5.78,12.043,12.043,0,0,1-4.15-9.46Q3718.85,1454.6,3726.09,1449.58Zm213.33-2.7h44.77v113.86h25.09V1446.88h44.77v-21.23H3939.42v21.23ZM4672.16,766.3L4247.61,472.271V367.464l33.76-23.383h155.36l33.77,23.385V494.63l201.66,139.665V258.683L4497.89,142.419l-275.13,0L4045.94,260.379V577.911L4470.5,871.938V979.361l-32.88,22.769H4281.37l-33.76-23.381V850.93L4045.94,711.266V1087.53l174.27,116.26h275.13l176.82-117.96V766.3Zm107.1,794.438h101.31V1539.7h-76.23v-37.24h65.23v-20.65h-65.23v-35.12h73.53v-21.04h-98.61v135.09ZM5547.38,142.419l-725.57,0v250.9h17.09l54.03-49.235h190.83V1132.67l-49.24,54.04v17.09h300.14v-17.09l-49.24-54.04V344.081h190.84l54.03,49.238h17.09v-250.9Zm74.8,1315.081a66.716,66.716,0,0,0-26.05-24.8q-16.6-8.97-37.25-8.98t-37.24,8.98a66.382,66.382,0,0,0-26.05,24.89,71.734,71.734,0,0,0,0,71.21,66.382,66.382,0,0,0,26.05,24.89q16.59,8.985,37.24,8.98t37.25-8.98a66.691,66.691,0,0,0,26.05-24.79A72.092,72.092,0,0,0,5622.18,1457.5ZM6322.59,240.789l-141.2-98.434H5837.58l-141.2,98.434V1105.97l141.2,97.76h343.81l141.2-97.76V240.789Zm77.86,1207.251q-6.945-10.8-19.97-16.6t-30.59-5.79h-55.57v135.09h25.08v-38.98h30.49q17.565,0,30.59-5.79a44.2,44.2,0,0,0,19.97-16.69q6.96-10.9,6.95-25.57Q6407.4,1458.845,6400.45,1448.04Zm748.54-261.33-49.24-54.04V757.06l-68.64-45.794,68.64-47.856V260.379L6922.94,142.417l-499.52,0v17.088l49.23,54.035V1132.67l-49.23,54.04v17.09h250.9V958.162l178.46-123.6,45.31,30.228V1203.8h250.9v-17.09Zm727.68-233.875h-17.08l-54.04,49.235H7451.24V829.823h285.84l36.15,32.94h11.44V595.221h-11.44l-36.15,32.94H7451.24V344.016h354.31l54.04,49.236h17.08v-250.9H7200.34v17.087l49.24,54.037V1132.61l-49.24,54.03v17.09h676.33V952.835ZM6674.32,344.076h190.01l33.76,23.386V557.878L6674.32,712.856V344.076ZM6348.74,1500.53H6319.4v-53.65h29.34q16.4,0,24.89,6.95t8.49,19.88q0,12.93-8.49,19.87T6348.74,1500.53ZM5931.8,1002.07l-33.76-23.385V367.4l33.76-23.384h155.36l33.77,23.384V978.687l-33.77,23.383H5931.8Zm-348.6,532.52a51.66,51.66,0,0,1-48.63,0,43.849,43.849,0,0,1-16.98-16.98,51.318,51.318,0,0,1,0-48.83,43.983,43.983,0,0,1,16.98-16.98,51.66,51.66,0,0,1,48.63,0,44.118,44.118,0,0,1,16.98,16.98,51.318,51.318,0,0,1,0,48.83A43.983,43.983,0,0,1,5583.2,1534.59ZM1269.18,471.475l57.51,223.163L1180.41,795.952ZM2918.96,1509.79h-50.75l25.28-59.05Zm1325.75-57.99a51.66,51.66,0,0,1,48.63,0,44.05,44.05,0,0,1,16.98,16.98,51.318,51.318,0,0,1,0,48.83,43.916,43.916,0,0,1-16.98,16.98,51.66,51.66,0,0,1-48.63,0,43.983,43.983,0,0,1-16.98-16.98,51.318,51.318,0,0,1,0-48.83A44.118,44.118,0,0,1,4244.71,1451.8Zm337.9,2.03q8.49,6.945,8.49,19.88t-8.49,19.97q-8.49,7.05-24.89,7.04h-29.33v-53.84h29.33Q4574.115,1446.88,4582.61,1453.83Z"></path></svg>